<?xml version="1.0" encoding="UTF-8"?>
<svg width="450px" height="450px" viewBox="0 0 450 450" version="1.1" xmlns="http://www.w3.org/2000/svg" xmlns:xlink="http://www.w3.org/1999/xlink">
    <!-- Generator: Sketch 58 (84663) - https://sketch.com -->
    <title>aware</title>
    <desc>Created with Sketch.</desc>
    <g id="aware" stroke="none" stroke-width="1" fill="none" fill-rule="evenodd" stroke-linecap="round" stroke-linejoin="round">
        <path d="M152.665234,231.528387 C152.665234,242.514256 147.582571,292.137086 160.259321,312.952476 C177.283352,340.906159 246.699686,298.967179 203.171417,282.190963 C186.215413,275.655955 186.503588,316.502637 203.171417,325.178173 C230.529327,339.417851 281.076848,341.582675 287.128616,339.131438 C313.758741,328.345047 273.342017,249.855643 228.221896,261.969099 C198.753822,269.880431 238.05402,223.185793 236.26556,217.40011 C225.102691,181.288152 91.9548708,235.641543 96.0945259,217.40011 C104.113314,182.065237 177.328649,123.03984 222.82694,136.482019 C246.699686,143.535069 260.44075,129.993083 269.620741,127.174706 C282.026354,123.36602 280.81166,116.816819 273.060717,114.943702 C144.36143,83.8418288 281.727949,163.821843 279.051001,224.036098 C278.112436,245.147824 288.668213,262.707347 279.051001,269.880431 C262.510562,282.217268 167.758762,323.868614 135.339936,294.120843 C102.735232,264.202508 132.518127,162.83553 135.339936,158.255792 C145.178674,142.287719 156.251785,192.740438 186.503588,181.106694 C215.331502,170.020526 160.946861,158.255792 218.828352,154.173249 C278.440315,149.96865 293.308415,120.729053 320.203779,127.174706 C334.393142,130.57528 279.029418,245.010706 289.745896,259.12324 C302.373803,275.752936 379.219288,197.543021 345.531375,178.254336 C281.429264,141.551395 368.86152,239.186709 342.986266,244.323019 C326.207282,247.653695 325.956495,280.874743 305.431259,282.190963 C235.278865,286.689618 136.511414,252.312341 135.339936,269.880431 C135.030388,274.522563 213.454651,325.178173 175.166263,244.323019 C158.284825,208.673798 234.765141,166.410865 255.804823,170.020526 C265.006835,171.599264 241.271522,220.666031 251.374011,228.699408 C261.884638,237.057332 274.808654,153.525731 289.745896,158.255792 C300.170362,161.556828 315.901243,202.154691 324.964517,224.036098 C337.719353,254.83002 342.187071,270.289983 342.986266,282.190963 C344.414472,303.458666 309.279155,282.557433 289.745896,304.27694 C270.212638,325.996448 265.456102,337.998662 246.699686,325.178173 C235.083198,317.238007 238.617521,272.002316 236.26556,244.323019 C233.815676,215.491314 225.302783,205.093817 203.171417,244.323019 C190.161276,267.384291 173.325881,262.176421 152.665234,228.699408" id="Line-10" stroke="#9B795F" stroke-width="10"></path>
        <g id="Group-2" transform="translate(67.000000, 22.000000)" stroke="#9B795F" stroke-width="10">
            <path d="M166.5,0.5 L166.5,33.5" id="Line-12"></path>
            <path d="M321.5,66 L321.5,99" id="Line-12" transform="translate(321.500000, 82.500000) rotate(45.000000) translate(-321.500000, -82.500000) "></path>
            <path d="M12.5,66 L12.5,99" id="Line-12" transform="translate(12.500000, 82.500000) scale(-1, 1) rotate(45.000000) translate(-12.500000, -82.500000) "></path>
        </g>
        <path d="M29,208 L29,241" id="Line-12" stroke="#9B795F" stroke-width="10" transform="translate(29.000000, 224.500000) rotate(90.000000) translate(-29.000000, -224.500000) "></path>
        <path d="M29,208 L29,241" id="Line-12" stroke="#9B795F" stroke-width="10" transform="translate(29.000000, 224.500000) rotate(90.000000) translate(-29.000000, -224.500000) "></path>
        <path d="M418,208 L418,241" id="Line-12" stroke="#9B795F" stroke-width="10" transform="translate(418.000000, 224.500000) rotate(90.000000) translate(-418.000000, -224.500000) "></path>
        <g id="Group" transform="translate(234.000000, 379.500000) scale(-1, -1) translate(-234.000000, -379.500000) translate(67.000000, 332.000000)" stroke="#9B795F" stroke-width="10">
            <path d="M166.5,0.5 L166.5,33.5" id="Line-12"></path>
            <path d="M321.5,66 L321.5,99" id="Line-12" transform="translate(321.500000, 82.500000) rotate(45.000000) translate(-321.500000, -82.500000) "></path>
            <path d="M12.5,66 L12.5,99" id="Line-12" transform="translate(12.500000, 82.500000) scale(-1, 1) rotate(45.000000) translate(-12.500000, -82.500000) "></path>
        </g>
    </g>
</svg>