<svg width="450" height="450" viewBox="0 0 450 450" fill="none" xmlns="http://www.w3.org/2000/svg">
<g clip-path="url(#clip0_32_3)">
<circle cx="225" cy="225" r="194" fill="#ABABAB"/>
<path d="M204 270.8C202.133 258.267 202.8 247.2 206 237.6C209.2 227.733 213.6 218.933 219.2 211.2C225.067 203.2 230.933 195.6 236.8 188.4C242.933 181.2 248.133 174 252.4 166.8C256.667 159.6 258.8 151.733 258.8 143.2C258.8 136 257.333 129.467 254.4 123.6C251.467 117.733 247.067 113.067 241.2 109.6C235.6 106.133 228.533 104.4 220 104.4C211.467 104.4 203.2 106.533 195.2 110.8C187.467 114.8 180.4 120.4 174 127.6L155.2 110.4C163.733 100.8 173.6 92.9333 184.8 86.8C196.267 80.4 209.333 77.2 224 77.2C237.333 77.2 249.067 79.8666 259.2 85.2C269.333 90.2667 277.067 97.6 282.4 107.2C288 116.533 290.8 127.867 290.8 141.2C290.8 151.6 288.667 161.067 284.4 169.6C280.133 177.867 274.8 185.867 268.4 193.6C262.267 201.067 256.267 208.667 250.4 216.4C244.533 223.867 239.867 232 236.4 240.8C232.933 249.6 231.733 259.6 232.8 270.8H204ZM219.2 354.8C212.8 354.8 207.2 352.533 202.4 348C197.867 343.2 195.6 337.2 195.6 330C195.6 322.267 197.867 316.133 202.4 311.6C207.2 306.8 212.8 304.4 219.2 304.4C225.867 304.4 231.467 306.8 236 311.6C240.8 316.133 243.2 322.267 243.2 330C243.2 337.2 240.8 343.2 236 348C231.467 352.533 225.867 354.8 219.2 354.8Z" fill="white"/>
</g>
<defs>
<clipPath id="clip0_32_3">
<rect width="450" height="450" fill="white"/>
</clipPath>
</defs>
</svg>
