<?xml version="1.0" encoding="UTF-8"?>
<svg width="450px" height="450px" viewBox="0 0 450 450" version="1.1" xmlns="http://www.w3.org/2000/svg" xmlns:xlink="http://www.w3.org/1999/xlink">
    <!-- Generator: Sketch 58 (84663) - https://sketch.com -->
    <title>democrat</title>
    <desc>Created with Sketch.</desc>
    <g id="democrat" stroke="none" stroke-width="1" fill="none" fill-rule="evenodd">
        <path d="M313.559396,128.899109 C331.709427,126.160773 340.076817,129.023175 358.908503,145.48353 C371.462961,156.457099 377.392226,167.354787 376.696297,178.176592 C377.392226,196.344414 376.143146,210.302153 372.94906,220.049809 C372.137524,222.52644 368.351619,230.493153 374.557871,247.303988 C378.792064,258.773121 397.628072,270.867727 395.403126,273.5903 C394.620548,274.547908 399.359411,299.031484 395.403126,297.393512 C392.881011,296.349312 394.203907,292.830292 386.07568,284.121319 C383.699134,281.574973 385.558383,272.546825 380.13866,267.730042 C378.377227,266.164566 372.94906,253.84532 366.900166,253.84532 C362.86757,253.84532 362.86757,262.525594 366.900166,279.886141 C374.832269,348.441774 366.362076,386.101328 341.489587,392.864804 C334.917206,394.652005 327.46324,397.64885 320.621664,390.222481 C311.199495,379.994939 339.931053,372.610382 335.557053,365.998864 C332.20908,360.938237 349.800275,311.199043 341.489587,299.86469 C337.915053,294.989639 333.239458,275.620447 324.2402,270.017788 C322.145507,268.713697 320.621664,270.017788 320.621664,273.5903 C320.621664,277.162811 330.443226,289.130695 325.675015,298.238419 C324.381267,300.709597 311.836215,313.678533 302.367618,320.130289 C297.421348,323.500601 303.778925,327.361618 300.598883,343.24876 C299.864223,346.919039 292.772658,352.610598 287.048262,360.444552 C283.113405,365.829484 281.062838,372.991726 277.1854,378.127953 C273.112447,383.523169 249.729274,385.692144 246.952088,372.956267 C245.550623,366.529301 289.565915,316.499118 283.461537,299.86469 C282.254563,296.575687 275.483209,273.057165 268.109709,267.730042 C260.736209,262.402918 234.859258,267.730042 201.33645,272.051305 C196.330933,272.696542 187.946411,297.393512 186.37502,308.635567 C185.210783,316.964762 186.37502,345.762613 202.525784,352.381138 C212.575385,356.499428 192.173765,378.126643 171.253779,387.908409 C160.65368,392.864804 132.816488,391.091939 132.816488,385.692144 C132.816488,378.644942 151.722433,361.541302 154.241731,336.456877 C155.721661,321.721349 152.943422,267.730042 144.049608,242.417581 C139.112426,228.36599 128.785741,199.264178 113.932968,189.784186 C110.224463,187.41718 95.5888445,201.955432 91.9259915,204.306757 C87.0032194,207.466872 64.2211913,217.839982 54.1896224,199.264178 C48.4312277,188.601158 65.5480964,157.460804 63.6928082,134.599207 C63.2817517,129.534006 67.7370011,123.395497 70.1970432,116.782348 C72.4742741,110.660636 59.2545501,101.784421 59.2545501,86.2504051 C59.2545501,81.6233779 57.301105,57.1469302 67.7370011,59.7341359 C75.2223059,61.5898484 81.8656815,94.6060248 89.3536973,92.6370301 C95.0198234,91.1471063 96.4198936,51.9296461 106.524378,54.0857232 C123.05057,57.6120529 108.541897,94.0858861 121.130961,103.822839 C127.939746,109.089062 140.129994,109.607003 157.120929,116.782348 C173.239716,123.58938 185.912902,153.576159 220.016296,153.576159 C254.11969,153.576159 295.409366,131.637445 313.559396,128.899109 Z" id="Polygon" stroke="#9B795F" stroke-width="10"></path>
    </g>
</svg>