<?xml version="1.0" encoding="UTF-8"?>
<svg width="450px" height="450px" viewBox="0 0 450 450" version="1.1" xmlns="http://www.w3.org/2000/svg" xmlns:xlink="http://www.w3.org/1999/xlink">
    <!-- Generator: Sketch 58 (84663) - https://sketch.com -->
    <title>free</title>
    <desc>Created with Sketch.</desc>
    <g id="free" stroke="none" stroke-width="1" fill="none" fill-rule="evenodd">
        <path d="M223.775545,98 C271.231086,98 341.092094,257.972897 318.686627,307.407241 C296.281159,356.841585 153.085761,360.847945 128.864463,307.407241 C104.643166,253.966536 176.320004,98 223.775545,98 Z" id="Triangle" stroke="#9B795F" stroke-width="10"></path>
        <path d="M228.5,422 C297.526301,422 351.04326,380.945112 383.884129,325.596049 C400.573958,297.467488 417,268.579375 417,233.5 C417,176.657619 387.042307,131.369121 347.251416,96.8084731 C314.166091,68.0719906 275.763295,45 228.5,45 C140.371467,45 79.7450694,99.414462 59.1061903,181.131627 C55.3644928,195.946429 40,217.522858 40,233.5 C40,310.258971 96.1538515,372.06754 161.986591,401.467733 C185.440637,411.942058 201.153296,422 228.5,422 Z" id="Oval" stroke="#9B795F" stroke-width="8"></path>
        <path d="M221.5,404 C270.277248,404 311.309901,383.499226 342.774795,351.940586 C355.836916,338.839548 367.250171,323.832847 376.884129,307.596049 C393.573958,279.467488 410,250.579375 410,215.5 C410,188.716755 421.196879,163.219597 410,141.480206 C397.433617,117.081844 361.293459,97.0846815 340.251416,78.8084731 C307.166091,50.0719906 268.763295,27 221.5,27 C133.371467,27 72.7450694,81.414462 52.1061903,163.131627 C48.3644928,177.946429 33,199.522858 33,215.5 C33,271.15301 33.7866729,331.718997 75.1110332,365 C90.7829678,377.621555 140.798526,385.164123 158.900166,393.248121 C182.354212,403.722445 194.153296,404 221.5,404 Z" id="Oval" stroke="#9B795F" stroke-width="8"></path>
    </g>
</svg>