<?xml version="1.0" encoding="UTF-8"?>
<svg width="450px" height="450px" viewBox="0 0 450 450" version="1.1" xmlns="http://www.w3.org/2000/svg" xmlns:xlink="http://www.w3.org/1999/xlink">
    <!-- Generator: Sketch 58 (84663) - https://sketch.com -->
    <title>god reunion</title>
    <desc>Created with Sketch.</desc>
    <g id="god-reunion" stroke="none" stroke-width="1" fill="none" fill-rule="evenodd">
        <path d="M129.113541,222 C148.668086,222 177.455034,287.795304 168.22263,308.127172 C158.990227,328.459039 99.9850873,330.106816 90.0044522,308.127172 C80.023817,286.147527 109.558997,222 129.113541,222 Z" id="Triangle" stroke="#9B795F" stroke-width="10"></path>
        <path d="M297.67862,126 C328.441257,126 373.728041,253.720297 359.203894,293.188039 C344.679747,332.655781 251.854589,335.854408 236.153346,293.188039 C220.452102,250.52167 266.915983,126 297.67862,126 Z" id="Triangle" stroke="#9B795F" stroke-width="10"></path>
        <path d="M291.473953,105.958612 C294.27256,102.105157 308.813182,102.091143 315.34287,99.380048 C320.692838,97.1587668 318.962769,92.1523772 315.34287,89.9569325 C307.304848,85.0819264 265.837627,78.6696751 264.033327,94.9073276 C262.229027,111.14498 334.320226,114.954309 326.673619,94.9073276 C315.34287,78.6661574 269.337849,83.7125249 269.337849,89.9569325 C263.989661,97.2290474 287.45444,110.42583 320.82788,108.070193 C354.20132,105.714557 286.382363,112.969316 291.473953,105.958612 Z" id="Line-7" stroke="#9B795F" stroke-width="8" stroke-linecap="round" stroke-linejoin="round"></path>
    </g>
</svg>