<?xml version="1.0" encoding="UTF-8"?>
<svg width="450px" height="450px" viewBox="0 0 450 450" version="1.1" xmlns="http://www.w3.org/2000/svg" xmlns:xlink="http://www.w3.org/1999/xlink">
    <!-- Generator: Sketch 58 (84663) - https://sketch.com -->
    <title>god</title>
    <desc>Created with Sketch.</desc>
    <g id="god" stroke="none" stroke-width="1" fill="none" fill-rule="evenodd" stroke-linecap="round" stroke-linejoin="round">
        <path d="M267.402534,139.985395 C267.402534,144.34186 265.39311,164.019879 270.404848,172.274258 C277.135279,183.359339 304.578946,166.728364 287.370095,160.075727 C280.666559,157.484258 280.780488,173.68208 287.370095,177.122379 C298.186013,182.769148 318.169917,183.627612 320.562476,182.65557 C331.090665,178.378208 315.11196,147.2531 297.273773,152.056712 C285.623604,155.193964 301.160892,136.677125 300.453826,134.382802 C296.040599,120.062543 243.400763,141.616474 245.037371,134.382802 C248.207589,120.370698 277.153187,96.9640746 295.140883,102.294594 C304.578946,105.091493 310.011459,99.7213949 313.640758,98.6037625 C318.545303,97.0934219 318.065075,94.4963249 315.000749,93.753537 C264.119635,81.4200356 318.427329,113.136248 317.369,137.014315 C316.99794,145.386206 321.171154,152.349465 317.369,155.193964 C310.829757,160.086158 273.369743,176.603071 260.552998,164.806541 C247.662766,152.942374 259.437399,112.745124 260.552998,110.929021 C264.442732,104.596854 268.820473,124.603967 280.780488,119.990586 C292.177571,115.594347 270.676666,110.929021 293.560046,109.310081 C317.127566,107.642741 323.005652,96.047728 333.638703,98.6037625 C339.248451,99.9522664 317.360468,145.331832 321.597215,150.928181 C326.589643,157.522716 356.970416,126.508439 343.651939,118.859478 C318.309244,104.304864 352.875485,143.022316 342.645733,145.059128 C336.012181,146.379913 335.913033,159.553778 327.798405,160.075727 C300.063737,161.859676 261.01614,148.227308 260.552998,155.193964 C260.430619,157.034809 291.43556,177.122379 276.29829,145.059128 C269.624233,130.922368 299.860637,114.162929 308.178651,115.594347 C311.816656,116.220398 302.432927,135.677909 306.426935,138.863559 C310.582299,142.177907 315.691793,109.053307 321.597215,110.929021 C325.718515,112.238052 331.937701,128.337205 335.520856,137.014315 C340.563465,149.225698 342.329772,155.356372 342.645733,160.075727 C343.210373,168.509471 329.319666,160.221051 321.597215,168.833959 C313.874764,177.446867 311.994273,182.206366 304.578946,177.122379 C299.986381,173.973692 301.383671,156.035401 300.453826,145.059128 C299.485267,133.625866 296.119705,129.502721 287.370095,145.059128 C282.226551,154.204116 275.570697,152.138926 267.402534,138.863559" id="Line-10" stroke="#9B795F" stroke-width="5"></path>
        <path d="M104.402534,351.985395 C104.402534,356.34186 102.39311,376.019879 107.404848,384.274258 C114.135279,395.359339 141.578946,378.728364 124.370095,372.075727 C117.666559,369.484258 117.780488,385.68208 124.370095,389.122379 C135.186013,394.769148 155.169917,395.627612 157.562476,394.65557 C168.090665,390.378208 152.11196,359.2531 134.273773,364.056712 C122.623604,367.193964 138.160892,348.677125 137.453826,346.382802 C133.040599,332.062543 80.4007629,353.616474 82.0373707,346.382802 C85.2075893,332.370698 114.153187,308.964075 132.140883,314.294594 C141.578946,317.091493 147.011459,311.721395 150.640758,310.603763 C155.545303,309.093422 155.065075,306.496325 152.000749,305.753537 C101.119635,293.420036 155.427329,325.136248 154.369,349.014315 C153.99794,357.386206 158.171154,364.349465 154.369,367.193964 C147.829757,372.086158 110.369743,388.603071 97.5529979,376.806541 C84.6627662,364.942374 96.4373992,324.745124 97.5529979,322.929021 C101.442732,316.596854 105.820473,336.603967 117.780488,331.990586 C129.177571,327.594347 107.676666,322.929021 130.560046,321.310081 C154.127566,319.642741 160.005652,308.047728 170.638703,310.603763 C176.248451,311.952266 154.360468,357.331832 158.597215,362.928181 C163.589643,369.522716 193.970416,338.508439 180.651939,330.859478 C155.309244,316.304864 189.875485,355.022316 179.645733,357.059128 C173.012181,358.379913 172.913033,371.553778 164.798405,372.075727 C137.063737,373.859676 98.0161405,360.227308 97.5529979,367.193964 C97.4306186,369.034809 128.43556,389.122379 113.29829,357.059128 C106.624233,342.922368 136.860637,326.162929 145.178651,327.594347 C148.816656,328.220398 139.432927,347.677909 143.426935,350.863559 C147.582299,354.177907 152.691793,321.053307 158.597215,322.929021 C162.718515,324.238052 168.937701,340.337205 172.520856,349.014315 C177.563465,361.225698 179.329772,367.356372 179.645733,372.075727 C180.210373,380.509471 166.319666,372.221051 158.597215,380.833959 C150.874764,389.446867 148.994273,394.206366 141.578946,389.122379 C136.986381,385.973692 138.383671,368.035401 137.453826,357.059128 C136.485267,345.625866 133.119705,341.502721 124.370095,357.059128 C119.226551,366.204116 112.570697,364.138926 104.402534,350.863559" id="Line-10" stroke="#9B795F" stroke-width="5"></path>
        <path d="M301.729988,174 C316.780055,177.560691 330.239844,194.628521 332.510721,224.777407 C334.024639,244.876664 323.764395,257.982477 301.729988,264.094846 C278.998616,258.277487 267.097876,248.196446 266.02777,233.851722 C264.42261,212.334636 273.611661,181.615086 295.512045,180.743626 C317.412428,179.872167 332.748144,210.309709 338.619147,224.777407 C344.49015,239.245104 341.764186,257.969734 326.85046,257.969734 C311.936734,257.969734 293.775778,249.278934 290.492634,235.781575 C287.20949,222.284216 286.421848,225.025025 301.729988,214.478205 C317.038128,203.931386 337.514154,178.580117 332.510721,193.566307 C327.507289,208.552497 290.622524,254.116186 287.20949,257.969734 C283.796457,261.823282 277.58186,261.823282 275.469511,257.969734 C273.357163,254.116186 259.097014,201.209113 260.702433,193.566307 C261.772712,188.471103 270.608398,191.309006 287.20949,202.080016 C308.289108,214.443203 320.484162,225.677056 323.794652,235.781575 C328.760387,250.938354 324.073475,273.853276 309.647986,270.568433 C295.222496,267.28359 270.946406,238.35472 275.469511,222.284216 C279.992617,206.213713 274.816132,195.291394 294.3124,190.018286 C313.808668,184.745178 342.000877,184.050708 338.619147,204.451124 C335.237416,224.851541 289.280817,257.86347 271.39762,251.507065 C253.514424,245.15066 258.327365,191.625706 271.39762,186.184666 C280.111124,182.557306 301.803789,205.493192 336.475616,254.992323 C321.830644,244.371285 317.603656,233.468583 323.794652,222.284216 C333.081146,205.507666 365.72241,208.409397 368.722679,196.736271 C371.722948,185.063146 349.789925,198.945467 331.41832,202.080016 C313.046716,205.214566 239.651842,193.566307 232.058224,196.736271 C224.464606,199.906236 259.788814,204.16632 272.684835,212.352165 C281.282182,217.809395 285.209863,235.056955 284.467876,264.094846 C287.29155,281.792527 287.29155,291.66206 284.467876,293.703444 C280.232365,296.765519 260.702433,296.765519 260.702433,293.703444 C260.702433,290.641368 267.824069,288.989889 279.992617,287.237798 C292.161165,285.485708 295.502111,258.693164 301.729988,254.992323 C307.957865,251.291482 317.342328,256.113775 318.938215,264.094846 C320.534101,272.075916 305.365708,293.703444 318.938215,293.703444 C332.510721,293.703444 338.619147,293.703444 343.300613,292.554856 C352.441518,290.312155 336.166347,286.053958 326.85046,284.233334 C311.477019,281.22887 315.097297,254.074246 309.647986,251.507065 C304.198674,248.939883 308.749035,284.966409 297.844211,270.568433 C286.939387,256.170456 282.678629,208.256471 288.703387,203.401076" id="Line-14" stroke="#9B795F" stroke-width="5"></path>
        <path d="M133,194 C137.415142,221.333333 153.022144,235 179.821006,235 C208.405442,235 167.414987,264.453547 188.465315,280.653982 C208.405442,296 218.793132,276.192286 235.454365,290.459313 C252.778864,305.294295 223.61805,327.116612 235.454365,335.999034 C252.778864,349 261.544133,340.663268 280.45711,352.961568 C286.241786,356.723096 289.089416,365.06924 289,378 C296.333333,369.033683 296.333333,359.367016 289,349 C278,333.449475 230.74278,346.58255 225,335.999034 C219.25722,325.415518 255.854091,304.886415 245,290.459313 C234.145909,276.032211 188.771114,289.950005 179.821006,280.653982 C170.870898,271.357959 201.045684,243.841738 198.356778,235 C195.667872,226.158262 153.250179,236.378822 142.671985,229.742847 C135.619855,225.318863 132.39586,213.404581 133,194 Z" id="Line-15" stroke="#9B795F" stroke-width="5"></path>
        <path d="M296.473953,76.9586116 C299.27256,73.1051575 313.813182,73.0911432 320.34287,70.380048 C325.692838,68.1587668 323.962769,63.1523772 320.34287,60.9569325 C312.304848,56.0819264 270.837627,49.6696751 269.033327,65.9073276 C267.229027,82.14498 339.320226,85.9543085 331.673619,65.9073276 C320.34287,49.6661574 274.337849,54.7125249 274.337849,60.9569325 C268.989661,68.2290474 292.45444,81.4258297 325.82788,79.0701931 C359.20132,76.7145565 291.382363,83.9693156 296.473953,76.9586116 Z" id="Line-7" stroke="#9B795F" stroke-width="5"></path>
    </g>
</svg>