<?xml version="1.0" encoding="UTF-8"?>
<svg width="450px" height="450px" viewBox="0 0 450 450" version="1.1" xmlns="http://www.w3.org/2000/svg" xmlns:xlink="http://www.w3.org/1999/xlink">
    <!-- Generator: Sketch 58 (84663) - https://sketch.com -->
    <title>hell</title>
    <desc>Created with Sketch.</desc>
    <g id="hell" stroke="none" stroke-width="1" fill="none" fill-rule="evenodd" stroke-linecap="round" stroke-linejoin="round">
        <path d="M222.897382,372.011194 C222.5,337.202294 214.469435,321.069712 225,312.160418 C251.489159,289.749493 278.941121,362.416102 299.909854,353.919773 C331.804074,340.996541 283.397997,246.957981 229.358783,261.471175 C194.065624,270.949783 241.134466,215.004695 238.992473,208.072839 C225.62299,164.806914 66.1552523,229.927994 71.1132113,208.072839 C80.7171088,165.737944 168.405242,95.0193105 222.897382,111.124455 C251.489159,119.57475 267.94648,103.350026 278.941121,99.973314 C293.799005,95.4101086 292.344198,87.5634767 283.061092,85.3192853 C128.921248,48.05597 293.441613,143.880439 290.235501,216.02345 C289.111406,241.317518 301.75379,262.355673 290.235501,270.949783 C270.42544,285.73061 156.943633,335.633305 118.116435,299.992345 C79.0666151,264.147034 114.736827,142.698732 118.116435,137.211725 C129.90004,118.080293 143.162021,178.527957 179.393832,164.589509 C213.920287,151.307114 148.785194,137.211725 218.108375,132.320409 C289.504098,127.282857 307.311241,92.2507444 339.523131,99.973314 C356.517367,104.04756 290.209652,241.153236 303.044504,258.061537 C318.168625,277.985661 410.204495,184.281957 369.857345,161.172083 C293.083886,117.198101 397.799262,234.175475 366.809133,240.329315 C346.713373,244.319815 346.413012,284.122125 321.830461,285.699095 C237.810733,291.088956 119.519484,249.901363 118.116435,270.949783 C117.745698,276.511545 211.672431,337.202294 165.815408,240.329315 C145.596942,197.617798 237.19546,146.98236 262.394149,151.307114 C273.415163,153.198608 244.987985,211.985755 257.087479,221.610586 C269.675787,231.624258 285.15455,131.544614 303.044504,137.211725 C315.52962,141.166712 334.370093,189.807223 345.224945,216.02345 C360.501086,252.917807 365.851957,271.440469 366.809133,285.699095 C368.519658,311.180039 326.438988,286.138164 303.044504,312.160418 C279.65002,338.182673 273.953238,352.562587 251.489159,337.202294 C237.576389,327.68914 241.809357,273.492025 238.992473,240.329315 C236.058309,205.7859 225.862636,193.328606 199.356465,240.329315 C183.774551,267.959145 163.61123,261.719569 138.866501,221.610586" id="Line-10" stroke="#C95033" stroke-width="10"></path>
    </g>
</svg>