<?xml version="1.0" encoding="UTF-8"?>
<svg width="450px" height="450px" viewBox="0 0 450 450" version="1.1" xmlns="http://www.w3.org/2000/svg" xmlns:xlink="http://www.w3.org/1999/xlink">
    <!-- Generator: Sketch 58 (84663) - https://sketch.com -->
    <title>livingdead</title>
    <desc>Created with Sketch.</desc>
    <g id="livingdead" stroke="none" stroke-width="1" fill="none" fill-rule="evenodd">
        <g id="Group-4" transform="translate(98.000000, 92.000000)" stroke="#9B795F" stroke-width="10">
            <path d="M84.1309093,164 C141.112639,164 109.531607,200.307438 165.876883,186.047102 C225.277563,171.013478 292.874965,187.701956 229.520388,203.782295 C140.12413,226.472402 286.699257,273.553842 193.75071,257.313061 C100.802162,241.07228 161.994752,283.315984 72.6405678,257.313061 C-16.7136167,231.310138 122.002185,234.147445 37.8345154,209.482676 C-46.3331544,184.817908 28.3299912,164 84.1309093,164 Z" id="Polygon"></path>
            <path d="M84.1309093,0 C141.112639,0 109.531607,36.3074383 165.876883,22.0471022 C225.277563,7.01347839 292.874965,23.7019558 229.520388,39.7822949 C140.12413,62.472402 286.699257,109.553842 193.75071,93.3130613 C100.802162,77.0722804 161.994752,119.315984 72.6405678,93.3130613 C-16.7136167,67.3101383 122.002185,70.1474446 37.8345154,45.4826764 C-46.3331544,20.8179083 28.3299912,0 84.1309093,0 Z" id="Polygon"></path>
            <path d="M1.0625,133 L253.9375,133" id="Line-18" stroke-linecap="round" stroke-linejoin="round"></path>
        </g>
    </g>
</svg>