<?xml version="1.0" encoding="UTF-8"?>
<svg width="450px" height="450px" viewBox="0 0 450 450" version="1.1" xmlns="http://www.w3.org/2000/svg" xmlns:xlink="http://www.w3.org/1999/xlink">
    <!-- Generator: Sketch 58 (84663) - https://sketch.com -->
    <title>livingdead</title>
    <desc>Created with Sketch.</desc>
    <g id="livingdead" stroke="none" stroke-width="1" fill="none" fill-rule="evenodd">
        <path d="M99.0625,225 L351.9375,225" id="Line-18" stroke="#9B795F" stroke-width="10" stroke-linecap="round" stroke-linejoin="round"></path>
        <path d="M208.332663,246 C230.231524,246 218.0945,283.731259 239.748763,268.911694 C262.57726,253.288517 288.555869,270.631444 264.207835,287.342385 C229.851626,310.9223 286.18246,359.850071 250.461057,342.972397 C214.739654,326.094723 238.256807,369.995042 203.916767,342.972397 C169.576728,315.949752 222.887114,318.898325 190.540324,293.266311 C158.193533,267.634297 186.887604,246 208.332663,246 Z" id="Polygon-2" stroke="#9B795F" stroke-width="10"></path>
        <path d="M208.332663,98 C230.231524,98 218.0945,135.731259 239.748763,120.911694 C262.57726,105.288517 288.555869,122.631444 264.207835,139.342385 C229.851626,162.9223 286.18246,211.850071 250.461057,194.972397 C214.739654,178.094723 238.256807,221.995042 203.916767,194.972397 C169.576728,167.949752 222.887114,170.898325 190.540324,145.266311 C158.193533,119.634297 186.887604,98 208.332663,98 Z" id="Polygon-2" stroke="#9B795F" stroke-width="10"></path>
    </g>
</svg>