<?xml version="1.0" encoding="UTF-8"?>
<svg width="450px" height="450px" viewBox="0 0 450 450" version="1.1" xmlns="http://www.w3.org/2000/svg" xmlns:xlink="http://www.w3.org/1999/xlink">
    <!-- Generator: Sketch 58 (84663) - https://sketch.com -->
    <title>physical</title>
    <desc>Created with Sketch.</desc>
    <g id="physical" stroke="none" stroke-width="1" fill="none" fill-rule="evenodd" stroke-linecap="round" stroke-linejoin="round">
        <path d="M163.730211,126.04894 C163.730211,134.146284 159.987165,170.721731 169.322756,186.064109 C181.859833,206.667901 232.980389,175.755981 200.924687,163.390753 C188.437707,158.574001 188.649929,188.680823 200.924687,195.075291 C221.071985,205.570916 258.296904,207.16654 262.753632,205.35981 C282.364964,197.409496 252.60071,139.557392 219.372714,148.485845 C197.671419,154.317042 226.613426,119.899873 225.296342,115.635426 C217.075625,89.0184222 119.021029,129.08062 122.069612,115.635426 C127.974921,89.5911879 181.893191,46.0853995 215.399684,55.9932124 C232.980389,61.1917967 243.099777,51.2104187 249.860236,49.1330804 C258.996152,46.3258168 258.10161,41.4986038 252.393551,40.1179872 C157.615007,17.1937618 258.776396,76.1445481 256.805001,120.526607 C256.11381,136.087405 263.887443,149.029984 256.805001,154.317042 C244.624057,163.410141 174.8456,194.110056 150.971271,172.183897 C126.960055,150.132021 148.893195,75.4175673 150.971271,72.0419848 C158.216853,60.2724134 166.371469,97.4595469 188.649929,88.8846754 C209.879788,80.7134051 169.829084,72.0419848 212.454988,69.0328688 C256.355271,65.9337898 267.304647,44.38219 287.11131,49.1330804 C297.560841,51.6395386 256.789106,135.986339 264.681086,146.38825 C273.980708,158.645483 330.572344,100.999382 305.763416,86.7822905 C258.556434,59.7296923 322.94453,131.693652 303.889111,135.479467 C291.532495,137.934404 291.347807,162.420608 276.232322,163.390753 C224.569707,166.706572 151.833987,141.368148 150.971271,154.317042 C150.743309,157.738613 208.497611,195.075291 180.300736,135.479467 C167.86867,109.203532 224.191383,78.0528358 239.685723,80.7134051 C246.462398,81.8770438 228.982903,118.042635 236.422721,123.963788 C244.163105,130.124154 253.680791,68.5556033 264.681086,72.0419848 C272.358019,74.4750754 283.942776,104.398501 290.61728,120.526607 C300.010376,143.223851 303.300556,154.61891 303.889111,163.390753 C304.94089,179.066516 279.066044,163.660866 264.681086,179.669641 C250.296129,195.678416 246.793253,204.524876 232.980389,195.075291 C224.425611,189.222841 227.028407,155.881018 225.296342,135.479467 C223.492164,114.228512 217.22298,106.56484 200.924687,135.479467 C191.343575,152.477215 178.945416,148.638655 163.730211,123.963788" id="Line-10" stroke="#9B795F" stroke-width="8"></path>
        <path d="M227.814129,188 C255.649019,194.600104 280.542711,226.23707 284.742667,282.12111 C287.542637,319.377137 268.566458,343.6701 227.814129,355 C185.772772,344.216932 163.76252,325.530692 161.783373,298.94128 C158.814652,259.057163 175.809675,202.115339 216.314129,200.5 C256.818583,198.884661 285.181776,255.303756 296.040115,282.12111 C306.898453,308.938465 301.856821,343.64648 274.274092,343.64648 C246.691363,343.64648 213.102929,327.537194 207.0308,302.518461 C200.95867,277.499727 199.501936,282.580095 227.814129,263.030488 C256.126322,243.480881 293.996446,196.489714 284.742667,224.268149 C275.488887,252.046583 207.271028,336.503535 200.95867,343.64648 C194.646312,350.789425 183.152503,350.789425 179.245743,343.64648 C175.338983,336.503535 148.965037,238.434871 151.934237,224.268149 C153.913703,214.823667 170.255181,220.08401 200.95867,240.049179 C239.945131,262.965608 262.499713,283.788702 268.622418,302.518461 C277.806475,330.613098 269.138097,373.088247 242.458355,366.999455 C215.778614,360.910662 170.880322,307.288048 179.245743,277.499727 C187.611164,247.711407 178.037327,227.465774 214.095403,217.691529 C250.153479,207.917285 302.294578,206.630013 296.040115,244.44427 C289.785651,282.258526 204.789561,343.449508 171.714837,331.667262 C138.640113,319.885016 147.541581,220.671047 171.714837,210.585523 C187.830341,203.861841 227.950623,246.375848 292.075684,338.127544 C264.990012,318.440366 257.172257,298.231094 268.622418,277.499727 C285.79766,246.402678 346.167224,251.781332 351.716179,230.144001 C357.265134,208.506671 316.700313,234.238971 282.722287,240.049179 C248.74426,245.859387 113.001461,224.268149 98.9571708,230.144001 C84.9128805,236.019854 150.244511,243.916355 174.095522,259.089655 C189.996197,269.205189 197.260387,301.175304 195.888093,355 C201.110439,387.804461 201.110439,406.098648 195.888093,409.882561 C188.054574,415.55843 151.934237,415.55843 151.934237,409.882561 C151.934237,404.206691 165.105604,401.145505 187.611164,397.897827 C210.116724,394.650149 216.295757,344.98743 227.814129,338.127544 C239.3325,331.267658 256.688935,340.206271 259.640505,355 C262.592074,369.793729 234.538343,409.882561 259.640505,409.882561 C284.742667,409.882561 296.040115,409.882561 304.698421,407.753536 C321.604398,403.596461 291.503695,395.703457 274.274092,392.328746 C245.841126,386.759664 252.536781,336.425795 242.458355,331.667262 C232.37993,326.908729 240.795759,393.687575 220.627438,366.999455 C200.459118,340.311335 192.578905,251.497868 203.721612,242.497898" id="Line-14" stroke="#9B795F" stroke-width="8"></path>
    </g>
</svg>