<?xml version="1.0" encoding="UTF-8"?>
<svg width="450px" height="450px" viewBox="0 0 450 450" version="1.1" xmlns="http://www.w3.org/2000/svg" xmlns:xlink="http://www.w3.org/1999/xlink">
    <!-- Generator: Sketch 58 (84663) - https://sketch.com -->
    <title>psychological</title>
    <desc>Created with Sketch.</desc>
    <g id="psychological" stroke="none" stroke-width="1" fill="none" fill-rule="evenodd" stroke-linecap="round" stroke-linejoin="round">
        <path d="M152.665234,177.528387 C152.665234,188.514256 147.582571,238.137086 160.259321,258.952476 C177.283352,286.906159 246.699686,244.967179 203.171417,228.190963 C186.215413,221.655955 186.503588,262.502637 203.171417,271.178173 C230.529327,285.417851 281.076848,287.582675 287.128616,285.131438 C313.758741,274.345047 273.342017,195.855643 228.221896,207.969099 C198.753822,215.880431 238.05402,169.185793 236.26556,163.40011 C225.102691,127.288152 91.9548708,181.641543 96.0945259,163.40011 C104.113314,128.065237 177.328649,69.0398403 222.82694,82.4820191 C246.699686,89.5350692 260.44075,75.9930827 269.620741,73.1747055 C282.026354,69.3660204 280.81166,62.8168192 273.060717,60.943702 C144.36143,29.8418288 281.727949,109.821843 279.051001,170.036098 C278.112436,191.147824 288.668213,208.707347 279.051001,215.880431 C262.510562,228.217268 167.758762,269.868614 135.339936,240.120843 C102.735232,210.202508 132.518127,108.83553 135.339936,104.255792 C145.178674,88.2877187 156.251785,138.740438 186.503588,127.106694 C215.331502,116.020526 160.946861,104.255792 218.828352,100.173249 C278.440315,95.9686505 293.308415,66.7290531 320.203779,73.1747055 C334.393142,76.5752804 279.029418,191.010706 289.745896,205.12324 C302.373803,221.752936 379.219288,143.543021 345.531375,124.254336 C281.429264,87.5513953 368.86152,185.186709 342.986266,190.323019 C326.207282,193.653695 325.956495,226.874743 305.431259,228.190963 C235.278865,232.689618 136.511414,198.312341 135.339936,215.880431 C135.030388,220.522563 213.454651,271.178173 175.166263,190.323019 C158.284825,154.673798 234.765141,112.410865 255.804823,116.020526 C265.006835,117.599264 241.271522,166.666031 251.374011,174.699408 C261.884638,183.057332 274.808654,99.5257308 289.745896,104.255792 C300.170362,107.556828 315.901243,148.154691 324.964517,170.036098 C337.719353,200.83002 342.187071,216.289983 342.986266,228.190963 C344.414472,249.458666 309.279155,228.557433 289.745896,250.27694 C270.212638,271.996448 265.456102,283.998662 246.699686,271.178173 C235.083198,263.238007 238.617521,218.002316 236.26556,190.323019 C233.815676,161.491314 225.302783,151.093817 203.171417,190.323019 C190.161276,213.384291 173.325881,208.176421 152.665234,174.699408" id="Line-10" stroke="#9B795F" stroke-width="10"></path>
        <path d="M124.880974,396 C124.880974,349.875828 164.314739,259.950976 242.254054,259.950976 C320.19337,259.950976 354,349.875828 354,396" id="Line-13" stroke="#9B795F" stroke-width="10"></path>
    </g>
</svg>