<?xml version="1.0" encoding="UTF-8"?>
<svg width="450px" height="450px" viewBox="0 0 450 450" version="1.1" xmlns="http://www.w3.org/2000/svg" xmlns:xlink="http://www.w3.org/1999/xlink">
    <!-- Generator: Sketch 58 (84663) - https://sketch.com -->
    <title>reincarnation</title>
    <desc>Created with Sketch.</desc>
    <g id="reincarnation" stroke="none" stroke-width="1" fill="none" fill-rule="evenodd">
        <path d="M138.703487,104 C158.144312,104 147.369607,141.375304 166.593289,126.695546 C186.859404,111.219757 209.922047,128.399072 188.306956,144.952362 C157.807056,168.309826 207.815041,216.776014 176.103183,200.057563 C144.391326,183.339112 165.268798,226.825278 134.783253,200.057563 C104.297707,173.289848 151.624275,176.210605 122.908246,150.820402 C94.1922179,125.4302 119.665526,104 138.703487,104 Z" id="Polygon" stroke="#9B795F" stroke-width="10"></path>
        <path d="M276.570567,76 C304.726245,76 289.1215,123.342052 316.962695,104.747692 C346.313619,85.1450257 379.714688,106.905491 348.410074,127.872992 C304.237805,157.459112 376.663162,218.849618 330.735645,197.672913 C284.808127,176.496209 315.044466,231.578685 270.892986,197.672913 C226.741507,163.767141 295.283433,167.466766 253.694702,135.305843 C212.105971,103.14492 248.998349,76 276.570567,76 Z" id="Polygon" stroke="#9B795F" stroke-width="10"></path>
        <path d="M198.468321,230 C233.327732,230 214.007571,288.732621 248.477622,265.66443 C284.816862,241.345333 326.170567,268.341399 287.412473,294.353712 C232.722997,331.058297 322.392487,407.219451 265.529846,380.947599 C208.667205,354.675748 246.102672,423.011151 191.438936,380.947599 C136.775199,338.884047 221.636631,343.473807 170.145821,303.574918 C118.655011,263.676028 164.331289,230 198.468321,230 Z" id="Polygon" stroke="#9B795F" stroke-width="10"></path>
        <path id="Line-17" d="M240.104428,136.64663 C240.362623,136.076419 241.034178,135.82348 241.604389,136.081675 C241.764673,136.154252 241.905858,136.263151 242.016763,136.399748 L242.016763,136.399748 L253.808815,150.923506 C254.203359,151.409448 254.129266,152.123224 253.643323,152.517768 C253.452944,152.672339 253.217566,152.760993 252.97252,152.770423 L252.97252,152.770423 L234.278283,153.489811 C233.652802,153.51388 233.126238,153.02634 233.102168,152.40086 C233.095402,152.22504 233.129665,152.050059 233.202242,151.889775 L233.202242,151.889775 L235.927971,145.869104 C229.795621,144.242369 224.142572,144.068344 218.952812,145.330785 C209.339464,147.669291 202.447525,151.752747 198.211468,157.554707 C197.722971,158.223782 196.784573,158.37017 196.115497,157.881672 C195.446422,157.393175 195.300035,156.454777 195.788532,155.785702 C200.481187,149.358358 207.988092,144.910536 218.243722,142.415791 C224.082299,140.995521 230.400891,141.229655 237.182227,143.100673 Z" fill="#9B795F" fill-rule="nonzero"></path>
        <path id="Line-17" d="M336.104428,223.64663 C336.362623,223.076419 337.034178,222.82348 337.604389,223.081675 C337.764673,223.154252 337.905858,223.263151 338.016763,223.399748 L338.016763,223.399748 L349.808815,237.923506 C350.203359,238.409448 350.129266,239.123224 349.643323,239.517768 C349.452944,239.672339 349.217566,239.760993 348.97252,239.770423 L348.97252,239.770423 L330.278283,240.489811 C329.652802,240.51388 329.126238,240.02634 329.102168,239.40086 C329.095402,239.22504 329.129665,239.050059 329.202242,238.889775 L329.202242,238.889775 L331.927971,232.869104 C325.795621,231.242369 320.142572,231.068344 314.952812,232.330785 C305.339464,234.669291 298.447525,238.752747 294.211468,244.554707 C293.722971,245.223782 292.784573,245.37017 292.115497,244.881672 C291.446422,244.393175 291.300035,243.454777 291.788532,242.785702 C296.481187,236.358358 303.988092,231.910536 314.243722,229.415791 C320.082299,227.995521 326.400891,228.229655 333.182227,230.100673 Z" fill="#9B795F" fill-rule="nonzero"></path>
        <path id="Line-17" d="M144.104428,226.64663 C144.362623,226.076419 145.034178,225.82348 145.604389,226.081675 C145.764673,226.154252 145.905858,226.263151 146.016763,226.399748 L146.016763,226.399748 L157.808815,240.923506 C158.203359,241.409448 158.129266,242.123224 157.643323,242.517768 C157.452944,242.672339 157.217566,242.760993 156.97252,242.770423 L156.97252,242.770423 L138.278283,243.489811 C137.652802,243.51388 137.126238,243.02634 137.102168,242.40086 C137.095402,242.22504 137.129665,242.050059 137.202242,241.889775 L137.202242,241.889775 L139.927971,235.869104 C133.795621,234.242369 128.142572,234.068344 122.952812,235.330785 C113.339464,237.669291 106.447525,241.752747 102.211468,247.554707 C101.722971,248.223782 100.784573,248.37017 100.115497,247.881672 C99.446422,247.393175 99.3000345,246.454777 99.7885318,245.785702 C104.481187,239.358358 111.988092,234.910536 122.243722,232.415791 C128.082299,230.995521 134.400891,231.229655 141.182227,233.100673 Z" fill="#9B795F" fill-rule="nonzero"></path>
    </g>
</svg>