<?xml version="1.0" encoding="UTF-8"?>
<svg width="450px" height="450px" viewBox="0 0 450 450" version="1.1" xmlns="http://www.w3.org/2000/svg" xmlns:xlink="http://www.w3.org/1999/xlink">
    <!-- Generator: Sketch 58 (84663) - https://sketch.com -->
    <title>reincarnation</title>
    <desc>Created with Sketch.</desc>
    <g id="reincarnation" stroke="none" stroke-width="1" fill="none" fill-rule="evenodd">
        <path d="M138.703487,104 C158.144312,104 147.369607,141.375304 166.593289,126.695546 C186.859404,111.219757 209.922047,128.399072 188.306956,144.952362 C157.807056,168.309826 207.815041,216.776014 176.103183,200.057563 C144.391326,183.339112 165.268798,226.825278 134.783253,200.057563 C104.297707,173.289848 151.624275,176.210605 122.908246,150.820402 C94.1922179,125.4302 119.665526,104 138.703487,104 Z" id="Polygon" stroke="#9B795F" stroke-width="10"></path>
        <path d="M276.570567,76 C304.726245,76 289.1215,123.342052 316.962695,104.747692 C346.313619,85.1450257 379.714688,106.905491 348.410074,127.872992 C304.237805,157.459112 376.663162,218.849618 330.735645,197.672913 C284.808127,176.496209 315.044466,231.578685 270.892986,197.672913 C226.741507,163.767141 295.283433,167.466766 253.694702,135.305843 C212.105971,103.14492 248.998349,76 276.570567,76 Z" id="Polygon" stroke="#9B795F" stroke-width="10"></path>
        <path d="M198.468321,230 C233.327732,230 214.007571,288.732621 248.477622,265.66443 C284.816862,241.345333 326.170567,268.341399 287.412473,294.353712 C232.722997,331.058297 322.392487,407.219451 265.529846,380.947599 C208.667205,354.675748 246.102672,423.011151 191.438936,380.947599 C136.775199,338.884047 221.636631,343.473807 170.145821,303.574918 C118.655011,263.676028 164.331289,230 198.468321,230 Z" id="Polygon" stroke="#9B795F" stroke-width="10"></path>
    </g>
</svg>