<?xml version="1.0" encoding="UTF-8"?>
<svg width="450px" height="450px" viewBox="0 0 450 450" version="1.1" xmlns="http://www.w3.org/2000/svg" xmlns:xlink="http://www.w3.org/1999/xlink">
    <!-- Generator: Sketch 58 (84663) - https://sketch.com -->
    <title>rejoin</title>
    <desc>Created with Sketch.</desc>
    <g id="rejoin" stroke="none" stroke-width="1" fill="none" fill-rule="evenodd">
        <path d="M126.459479,129.389185 C169.810286,129.389185 145.783932,206.987436 188.650534,176.509463 C233.84164,144.378776 285.268682,180.046307 237.069514,214.41409 C169.058244,262.908633 280.570301,363.533672 209.856504,328.822983 C139.142707,294.112294 185.69707,384.397858 117.717808,328.822983 C49.738546,273.248108 155.271352,279.312155 91.2379093,226.597259 C27.2044663,173.882362 84.0070163,129.389185 126.459479,129.389185 Z" id="Polygon" stroke="#9B795F" stroke-width="10" transform="translate(159.454003, 238.389185) rotate(10.000000) translate(-159.454003, -238.389185) "></path>
        <path d="M224.995477,62 C284.882158,62 251.691113,178.04142 310.908892,132.464268 C373.337843,84.415627 444.381387,137.75331 377.796969,189.147335 C283.843255,261.666697 437.890839,412.142672 340.203738,360.235862 C242.516637,308.329053 306.82885,443.343244 212.919354,360.235862 C119.009858,277.128481 264.797446,286.196735 176.338875,207.366201 C87.8803046,128.535668 166.349807,62 224.995477,62 Z" id="Polygon" stroke="#9B795F" stroke-width="10"></path>
    </g>
</svg>