<?xml version="1.0" encoding="UTF-8"?>
<svg width="450px" height="450px" viewBox="0 0 450 450" version="1.1" xmlns="http://www.w3.org/2000/svg" xmlns:xlink="http://www.w3.org/1999/xlink">
    <!-- Generator: Sketch 58 (84663) - https://sketch.com -->
    <title>republican</title>
    <desc>Created with Sketch.</desc>
    <g id="republican" stroke="none" stroke-width="1" fill="none" fill-rule="evenodd">
        <path d="M209.067972,65.1542264 C278.11327,65.1542264 321.915536,80.8642594 340.474772,112.284326 C345.265682,120.39515 357.302794,142.874639 357.302794,166.101075 C357.302794,189.327511 357.302794,218.881005 357.302794,239.438529 C357.302794,258.545055 357.302794,296.875704 357.302794,334.777219 C357.302794,335.287402 358.630934,347.247185 370.393706,344.421379 C377.89664,342.618926 372.278818,317.776979 375.466934,313.638777 C378.855104,309.2409 396.420492,308.529829 404.051325,310.403301 C411.682157,312.276772 409.030856,332.82171 405.747764,348.45366 C402.464672,364.08561 379.472813,381.065261 370.393706,382.416387 C357.492643,384.336284 343.380214,387.136367 331.012022,372.840764 C322.715804,363.251695 315.58176,323.636199 309.417992,301.806949 C305.946,289.510741 301.390006,289.986115 297.57907,290.81277 C287.002643,293.106975 299.55418,371.069738 289.394229,374.980308 C279.429909,378.815579 226.691507,378.550309 221.577707,374.980308 C215.782192,370.934394 226.645865,311.316594 214.421613,310.403301 C188.437884,308.462015 158.151158,305.601247 124.238953,310.403301 C110.218065,312.388693 129.315124,372.840764 111.03884,377.315875 C92.7625571,381.790986 54.2807665,378.675511 46.532026,374.980308 C38.7832856,371.285104 43.6002112,287.231301 41.4372658,228.653609 C39.2743204,170.075918 45.071089,134.247748 60.2679705,112.284326 C83.3248771,78.9611343 132.924878,63.2511013 209.067972,65.1542264 Z" id="Polygon" stroke="#9B795F" stroke-width="10"></path>
    </g>
</svg>