<?xml version="1.0" encoding="UTF-8"?>
<svg width="450px" height="450px" viewBox="0 0 450 450" version="1.1" xmlns="http://www.w3.org/2000/svg" xmlns:xlink="http://www.w3.org/1999/xlink">
    <!-- Generator: Sketch 58 (84663) - https://sketch.com -->
    <title>reunited</title>
    <desc>Created with Sketch.</desc>
    <g id="reunited" stroke="none" stroke-width="1" fill="none" fill-rule="evenodd">
        <path d="M121.113541,174 C140.668086,174 169.455034,239.795304 160.22263,260.127172 C150.990227,280.459039 91.9850873,282.106816 82.0044522,260.127172 C72.023817,238.147527 101.558997,174 121.113541,174 Z" id="Triangle" stroke="#9B795F" stroke-width="10"></path>
        <path d="M210.113541,85 C229.668086,85 258.455034,168.85676 249.22263,194.769925 C239.990227,220.683089 180.985087,222.783197 171.004452,194.769925 C161.023817,166.756652 190.558997,85 210.113541,85 Z" id="Triangle" stroke="#9B795F" stroke-width="10"></path>
        <path d="M329.113541,116 C348.668086,116 377.455034,172.764576 368.22263,190.305795 C358.990227,207.847014 299.985087,209.268626 290.004452,190.305795 C280.023817,171.342964 309.558997,116 329.113541,116 Z" id="Triangle" stroke="#9B795F" stroke-width="10"></path>
        <path d="M208.719673,274 C247.828762,274 257.061166,330.764576 247.828762,348.305795 C238.596359,365.847014 179.59122,367.268626 169.610584,348.305795 C159.629949,329.342964 169.610584,274 208.719673,274 Z" id="Triangle" stroke="#9B795F" stroke-width="10"></path>
        <path d="M306.610632,225 C334.634112,225 341.249559,281.764576 334.634112,299.305795 C328.018666,316.847014 285.738741,318.268626 278.587152,299.305795 C271.435562,280.342964 278.587152,225 306.610632,225 Z" id="Triangle" stroke="#9B795F" stroke-width="10"></path>
    </g>
</svg>