<?xml version="1.0" encoding="UTF-8"?>
<svg width="450px" height="450px" viewBox="0 0 450 450" version="1.1" xmlns="http://www.w3.org/2000/svg" xmlns:xlink="http://www.w3.org/1999/xlink">
    <!-- Generator: Sketch 58 (84663) - https://sketch.com -->
    <title>satan</title>
    <desc>Created with Sketch.</desc>
    <g id="satan" stroke="none" stroke-width="1" fill="none" fill-rule="evenodd" stroke-linecap="round" stroke-linejoin="round">
        <path d="M174.701965,143.140342 C174.701965,149.911805 171.589327,180.49829 179.352607,193.328466 C189.778177,210.558537 232.288955,184.708218 205.632108,174.367706 C195.248199,170.339662 195.424678,195.516712 205.632108,200.864132 C222.386177,209.641176 253.341636,210.975528 257.047757,209.464637 C273.356128,202.816128 248.604801,154.436883 220.973099,161.903367 C202.926759,166.779748 226.994323,137.998139 225.899064,134.431965 C219.062888,112.1733 137.52275,145.675606 140.057888,134.431965 C144.968619,112.65228 189.805917,76.2702464 217.669211,84.5557273 C232.288955,88.9030814 240.704025,80.5560811 246.32588,78.8188918 C253.923116,76.4712971 253.179234,72.4345049 248.432532,71.2799542 C169.61669,52.1094031 253.740372,101.407429 252.101001,138.52225 C251.526221,151.535081 257.990611,162.358408 252.101001,166.779748 C241.971584,174.383919 183.945288,200.056948 164.091899,181.721037 C144.124677,163.279994 162.363814,100.799486 164.091899,97.9766306 C170.117173,88.1342404 176.89838,119.232253 195.424678,112.061454 C213.078982,105.228169 179.773659,97.9766306 215.220464,95.4602353 C251.727015,92.8686078 260.832285,74.845925 277.303089,78.8188918 C285.992699,80.9149357 252.087783,151.450564 258.650588,160.149239 C266.383957,170.399439 313.44437,122.192465 292.813788,110.303319 C253.557456,87.6803859 307.101241,147.860773 291.255155,151.026689 C280.979653,153.079648 280.826071,173.556415 268.256352,174.367706 C225.294809,177.140583 164.809316,155.951141 164.091899,166.779748 C163.902331,169.641062 211.929593,200.864132 188.481665,151.026689 C178.14342,129.053246 224.980203,103.003249 237.864969,105.228169 C243.50031,106.201271 228.96473,136.44501 235.151526,141.396618 C241.588267,146.548269 249.502974,95.0611185 258.650588,97.9766306 C265.034563,100.01132 274.668203,125.035004 280.21858,138.52225 C288.029681,157.502986 290.765726,167.032188 291.255155,174.367706 C292.129793,187.476678 270.612816,174.59359 258.650588,187.981045 C246.68836,201.3685 243.775442,208.766416 232.288955,200.864132 C225.174982,195.969978 227.339412,168.087635 225.899064,151.026689 C224.398747,133.255422 219.185425,126.84662 205.632108,151.026689 C197.664657,165.24118 187.354609,162.031156 174.701965,141.396618" id="Line-10" stroke="#9B795F" stroke-width="7"></path>
        <path d="M228.170199,195 C251.399651,200.486966 272.174542,226.788212 275.679592,273.247151 C278.016291,304.219777 262.179827,324.415621 228.170199,333.83468 C193.08482,324.870226 174.716288,309.335507 173.064601,287.230522 C170.587072,254.073045 184.770173,206.734722 218.572938,205.391817 C252.375704,204.048913 276.046048,250.952667 285.107813,273.247151 C294.169579,295.541636 289.962113,324.395984 266.943101,324.395984 C243.924089,324.395984 215.893049,311.003603 210.825588,290.204394 C205.758126,269.405186 204.542417,273.628726 228.170199,257.376251 C251.797981,241.123775 283.402281,202.057885 275.679592,225.151358 C267.956902,248.244832 211.026069,318.457729 205.758126,324.395984 C200.490183,330.334238 190.898089,330.334238 187.637724,324.395984 C184.37736,318.457729 162.367131,236.928798 164.84506,225.151358 C166.497012,217.299732 180.134701,221.672894 205.758126,238.270845 C238.294059,257.322313 257.116859,274.633496 262.226528,290.204394 C269.891032,313.560742 262.656885,348.872261 240.391456,343.810372 C218.126027,338.748482 180.656409,294.169569 187.637724,269.405186 C194.619039,244.640803 186.629248,227.809689 216.721313,219.683916 C246.813379,211.558143 290.327441,210.487976 285.107813,241.924683 C279.888186,273.361391 208.955174,324.232232 181.352849,314.437116 C153.750524,304.642 161.179194,222.160924 181.352849,213.776371 C194.801952,208.186669 228.284109,243.530492 281.79932,319.807842 C259.195124,303.440997 252.67086,286.640112 262.226528,269.405186 C276.56003,243.552797 326.941112,248.024316 331.571961,230.036221 C336.202811,212.048126 302.349666,233.440555 273.993495,238.270845 C245.637323,243.101135 132.35393,225.151358 120.633346,230.036221 C108.912762,234.921084 163.434909,241.485804 183.339637,254.100057 C196.609455,262.509559 202.671745,289.087767 201.526504,333.83468 C205.884784,361.106518 205.884784,376.315306 201.526504,379.461044 C194.989085,384.179652 164.84506,384.179652 164.84506,379.461044 C164.84506,374.742437 175.83715,372.197533 194.619039,369.497591 C213.400928,366.797649 218.557607,325.510777 228.170199,319.807842 C237.782791,314.104907 252.267507,321.535982 254.730723,333.83468 C257.193939,346.133379 233.781854,379.461044 254.730723,379.461044 C275.679592,379.461044 285.107813,379.461044 292.333554,377.69109 C306.442343,374.235124 281.32197,367.673312 266.943101,364.867761 C243.214529,360.237931 248.80235,318.393101 240.391456,314.437116 C231.980562,310.481132 239.003946,365.997417 222.172587,343.810372 C205.341228,321.623326 198.76484,247.78866 208.063924,240.306576" id="Line-14" stroke="#9B795F" stroke-width="7"></path>
        <path d="M269,79.0059809 C306.159244,52.1726475 320.240722,42.7559809 311.244433,50.7559809 C302.248144,58.7559809 295.916667,77.2559809 292.25,106.255981" id="Line-16" stroke="#9B795F" stroke-width="7"></path>
        <path d="M138,86.0059809 C175.159244,59.1726475 189.240722,49.7559809 180.244433,57.7559809 C171.248144,65.7559809 164.916667,84.2559809 161.25,113.255981" id="Line-16" stroke="#9B795F" stroke-width="7" transform="translate(160.437333, 84.127990) scale(-1, 1) translate(-160.437333, -84.127990) "></path>
    </g>
</svg>