<?xml version="1.0" encoding="UTF-8"?>
<svg width="518px" height="518px" viewBox="0 0 518 518" version="1.1" xmlns="http://www.w3.org/2000/svg" xmlns:xlink="http://www.w3.org/1999/xlink">
    <!-- Generator: Sketch 58 (84663) - https://sketch.com -->
    <title>white-sun</title>
    <desc>Created with Sketch.</desc>
    <g id="white-sun" stroke="none" stroke-width="1" fill="none" fill-rule="evenodd" stroke-linecap="round" stroke-linejoin="round">
        <g id="Sun" transform="translate(39.000000, 42.000000)" stroke="#FFFFFF" stroke-width="2">
            <path d="M258.739962,130.052854 L314.894291,73.0528544" id="Line-4"></path>
            <path d="M266.739962,137.052854 L288.739962,118.630019" id="Line-4"></path>
            <path d="M271.739962,145.784348 L295.739962,129.052854" id="Line-4"></path>
            <path d="M278.739962,153.57293 L372.739962,96.0528544" id="Line-4"></path>
            <path d="M283.739962,163.467221 L316.739962,146.052854" id="Line-4"></path>
            <path d="M285.739962,171.414367 L334.739962,154.052854" id="Line-4"></path>
            <path d="M288.739962,181.052854 L375.739962,158.052854" id="Line-4"></path>
            <path d="M290.739962,188.374726 L357.739962,179.052854" id="Line-4"></path>
            <path d="M291.739962,199.052854 L431.739962,192.052854" id="Line-4"></path>
            <path d="M291.739962,209.052854 L440.739962,217.052854" id="Line-4"></path>
            <path d="M290.739962,217.363164 L343.739962,222.052854" id="Line-4"></path>
            <path d="M288.739962,228.052029 L337.739962,239.052854" id="Line-4"></path>
            <path d="M286.739962,236.052854 L321.739962,250.052854" id="Line-4"></path>
            <path d="M282.739962,244.879812 L310.739962,259.052854" id="Line-4"></path>
            <path d="M277.739962,255.052854 L350.739962,298.052854" id="Line-4"></path>
            <path d="M272.739962,263.966333 L310.739962,292.052854" id="Line-4"></path>
            <path d="M266.739962,270.009594 L337.739962,336.052854" id="Line-4"></path>
            <path d="M259.739962,277.987964 L302.739962,324.052854" id="Line-4"></path>
            <path d="M251.739962,282.998779 L281.739962,322.052854" id="Line-4"></path>
            <path d="M244.739962,287.993371 L262.739962,320.052854" id="Line-4"></path>
            <path d="M235.739962,293.996075 L244.739962,314.052854" id="Line-4"></path>
            <path d="M226.739962,297.994723 L256.739962,379.052854" id="Line-4"></path>
            <path d="M217.739962,301.052854 L241.739962,401.052854" id="Line-4"></path>
            <path d="M208.739962,301.023789 L212.739962,329.052854" id="Line-4"></path>
            <path d="M197.739962,302.038322 L204.739962,433.052854" id="Line-4"></path>
            <path d="M188.739962,302.052854 L185.739962,364.052854" id="Line-4"></path>
            <path d="M178.739962,301.034688 L174.739962,331.052854" id="Line-4"></path>
            <path d="M169.739962,300.032872 L144.739962,401.052854" id="Line-4"></path>
            <path d="M160.739962,296.03378 L132.739962,374.052854" id="Line-4"></path>
            <path d="M152.739962,294.052854 L103.739962,393.052854" id="Line-4"></path>
            <path d="M189.739962,106.052854 L189.739962,52.0528544" id="Line-4"></path>
            <path d="M180.739962,106.052854 L177.739962,79.0528544" id="Line-4"></path>
            <path d="M170.739962,108.052854 L165.739962,85.0528544" id="Line-4"></path>
            <path d="M152.739962,114.052854 L121.739962,50.0528544" id="Line-4"></path>
            <path d="M201.005623,106.11319 L200.563748,76.0888217" id="Line-4" transform="translate(201.063748, 91.588822) rotate(5.000000) translate(-201.063748, -91.588822) "></path>
            <path d="M213.989193,106.898807 L218.372258,6.65913823" id="Line-4" transform="translate(216.047318, 56.874438) rotate(5.000000) translate(-216.047318, -56.874438) "></path>
            <path d="M240.397247,116.005827 L264.855461,48.8441152" id="Line-4" transform="translate(252.455372, 82.481459) rotate(5.000000) translate(-252.455372, -82.481459) "></path>
            <path d="M254.992004,126.205279 L281.75167,79.7695993" id="Line-4" transform="translate(268.050129, 103.180910) rotate(5.000000) translate(-268.050129, -103.180910) "></path>
            <path d="M245.960991,119.50477 L255.807469,98.5503519" id="Line-4" transform="translate(250.519116, 109.480401) rotate(5.000000) translate(-250.519116, -109.480401) "></path>
            <path d="M229.464025,112.548083 L239.015482,72.563465" id="Line-4" transform="translate(234.273292, 92.556700) rotate(5.000000) translate(-234.273292, -92.556700) "></path>
            <path d="M226.523746,109.307435 L232.908477,18.8240928" id="Line-4" transform="translate(229.801814, 64.195618) rotate(10.000000) translate(-229.801814, -64.195618) "></path>
            <path d="M89.7399622,137.361512 L120.739962,108.361512" id="Line-4" transform="translate(105.239962, 123.207183) scale(1, -1) translate(-105.239962, -123.207183) "></path>
            <path d="M92.7399622,145.207183 L115.471456,128.630019" id="Line-4" transform="translate(104.317127, 137.130019) scale(1, -1) translate(-104.317127, -137.130019) "></path>
            <path d="M89.7399622,154.630019 L109.739962,142.630019" id="Line-4" transform="translate(99.605709, 148.341437) scale(1, -1) translate(-99.605709, -148.341437) "></path>
            <path d="M0.739962184,162.841437 L106.154329,113.947146" id="Line-4" transform="translate(53.500000, 138.447146) scale(1, -1) translate(-53.500000, -138.447146) "></path>
            <path d="M30.7399622,172.947146 L100.739962,146.947146" id="Line-4" transform="translate(65.447146, 159.500000) scale(1, -1) translate(-65.447146, -159.500000) "></path>
            <path d="M42.7399622,180.947146 L96.7399622,169.947146" id="Line-4" transform="translate(69.447146, 175.000000) scale(1, -1) translate(-69.447146, -175.000000) "></path>
            <path d="M3.73996218,190.052854 L97.0327788,179.5" id="Line-4" transform="translate(50.239962, 184.552854) scale(1, -1) translate(-50.239962, -184.552854) "></path>
            <path d="M63.7399622,199.605709 L95.7399622,198.605709" id="Line-4" transform="translate(79.886370, 199.329282) scale(1, -1) translate(-79.886370, -199.329282) "></path>
            <path d="M0.739962184,208.382136 L95.7399622,213.382136" id="Line-4" transform="translate(48.459575, 211.217495) scale(1, -1) translate(-48.459575, -211.217495) "></path>
            <path d="M63.7399622,219.835359 L97.2889934,222.891252" id="Line-4" transform="translate(80.496177, 220.944107) scale(1, -1) translate(-80.496177, -220.944107) "></path>
            <path d="M23.7399622,229.108748 L97.3072944,245.527947" id="Line-4" transform="translate(60.514478, 237.080801) scale(1, -1) translate(-60.514478, -237.080801) "></path>
            <path d="M77.7399622,238.472053 L101.739962,245.472053" id="Line-4" transform="translate(90.023628, 241.762454) scale(1, -1) translate(-90.023628, -241.762454) "></path>
            <path d="M60.7399622,248.052854 L105.456296,267.262454" id="Line-4" transform="translate(83.239962, 257.552854) scale(1, -1) translate(-83.239962, -257.552854) "></path>
            <path d="M3.73996218,255.262454 L109.739962,319.262454" id="Line-4" transform="translate(56.598129, 287.157654) scale(1, -1) translate(-56.598129, -287.157654) "></path>
            <path d="M98.7399622,264.157654 L113.739962,275.157654" id="Line-4" transform="translate(106.027213, 269.605254) scale(1, -1) translate(-106.027213, -269.605254) "></path>
            <path d="M89.7399622,270.210054 L121.739962,300.210054" id="Line-4" transform="translate(105.491754, 285.131454) scale(1, -1) translate(-105.491754, -285.131454) "></path>
            <path d="M97.7399622,278.183854 L130.190359,311.327954" id="Line-4" transform="translate(113.974025, 294.618354) scale(1, -1) translate(-113.974025, -294.618354) "></path>
            <path d="M118.739962,284.196954 L135.739962,305.196954" id="Line-4" transform="translate(126.965161, 294.624904) scale(1, -1) translate(-126.965161, -294.624904) "></path>
            <path d="M126.739962,289.190404 L144.739962,319.190404" id="Line-4" transform="translate(135.460728, 304.121629) scale(1, -1) translate(-135.460728, -304.121629) "></path>
            <path d="M106.739962,130.207183 L128.739962,109.207183" id="Line-4" transform="translate(117.817127, 119.630019) scale(1, -1) translate(-117.817127, -119.630019) "></path>
            <path d="M111.739962,123.630019 L137.260038,92.8414367" id="Line-4" transform="translate(124.605709, 108.341437) scale(1, -1) translate(-124.605709, -108.341437) "></path>
            <path d="M96.7399622,118.841437 L144.154329,39.9471456" id="Line-4" transform="translate(120.500000, 79.447146) scale(1, -1) translate(-120.500000, -79.447146) "></path>
            <path d="M120.739962,110.947146 L160.739962,0.947145558" id="Line-4" transform="translate(140.447146, 55.500000) scale(1, -1) translate(-140.447146, -55.500000) "></path>
        </g>
    </g>
</svg>